<mxfile host="app.diagrams.net" agent="Mozilla/5.0 (Windows NT 10.0; Win64; x64) AppleWebKit/537.36 (KHTML, like Gecko) Chrome/137.0.0.0 Safari/537.36" version="27.1.6">
  <diagram name="ThinkGenius2-Testing-Framework" id="bPEZFZis16asXX8_zijl">
    <mxGraphModel dx="1577" dy="1197" grid="1" gridSize="10" guides="1" tooltips="1" connect="1" arrows="1" fold="1" page="1" pageScale="1" pageWidth="827" pageHeight="1169" math="0" shadow="0">
      <root>
        <mxCell id="0" />
        <mxCell id="1" parent="0" />
        <mxCell id="2QEMIKGN3rchz1caqjJI-63" value="" style="rounded=1;whiteSpace=wrap;html=1;fillColor=#d5e8d4;strokeColor=#82b366;dashed=1;dashPattern=12 12;strokeWidth=1;" vertex="1" parent="1">
          <mxGeometry x="480" y="450" width="320" height="710" as="geometry" />
        </mxCell>
        <mxCell id="2QEMIKGN3rchz1caqjJI-61" value="" style="rounded=1;whiteSpace=wrap;html=1;fillColor=#e1d5e7;strokeColor=#9673a6;dashed=1;dashPattern=12 12;strokeWidth=1;" vertex="1" parent="1">
          <mxGeometry x="818.5" y="830" width="703" height="160" as="geometry" />
        </mxCell>
        <mxCell id="2QEMIKGN3rchz1caqjJI-62" value="" style="rounded=1;whiteSpace=wrap;html=1;fillColor=#ffe6cc;strokeColor=#d79b00;dashed=1;dashPattern=12 12;strokeWidth=1;" vertex="1" parent="1">
          <mxGeometry x="817" y="996" width="1043" height="160" as="geometry" />
        </mxCell>
        <mxCell id="2QEMIKGN3rchz1caqjJI-60" value="" style="rounded=1;whiteSpace=wrap;html=1;fillColor=#fff2cc;strokeColor=#d6b656;dashed=1;dashPattern=12 12;strokeWidth=1;" vertex="1" parent="1">
          <mxGeometry x="817" y="650" width="703" height="170" as="geometry" />
        </mxCell>
        <mxCell id="2QEMIKGN3rchz1caqjJI-58" value="" style="rounded=1;whiteSpace=wrap;html=1;fillColor=#dae8fc;strokeColor=default;dashed=1;dashPattern=12 12;strokeWidth=1;" vertex="1" parent="1">
          <mxGeometry x="820" y="450" width="1040" height="190" as="geometry" />
        </mxCell>
        <mxCell id="2QEMIKGN3rchz1caqjJI-1" value="ThinkGenius2 完整测试框架图" style="text;html=1;strokeColor=none;fillColor=none;align=center;verticalAlign=middle;whiteSpace=wrap;rounded=0;fontSize=28;fontStyle=1;fontColor=#1a237e;" vertex="1" parent="1">
          <mxGeometry x="789" y="395" width="600" height="40" as="geometry" />
        </mxCell>
        <mxCell id="2QEMIKGN3rchz1caqjJI-2" value="测试金字塔 (Testing Pyramid)" style="text;html=1;strokeColor=none;fillColor=none;align=center;verticalAlign=middle;whiteSpace=wrap;rounded=0;fontSize=20;fontStyle=1;fontColor=#e91e63;" vertex="1" parent="1">
          <mxGeometry x="480" y="460" width="300" height="30" as="geometry" />
        </mxCell>
        <mxCell id="2QEMIKGN3rchz1caqjJI-3" value="&lt;h3&gt;E2E测试 (End-to-End)&lt;/h3&gt;&lt;br&gt;• Cypress&lt;br&gt;• Playwright&lt;br&gt;• Selenium&lt;br&gt;• 用户场景测试&lt;br&gt;• 跨浏览器测试&lt;br&gt;&lt;br&gt;数量: 少量" style="rounded=1;whiteSpace=wrap;html=1;fillColor=#ff5722;strokeColor=#d84315;fontColor=#ffffff;fontSize=12;fontStyle=1;gradientColor=#d84315;gradientDirection=north;" vertex="1" parent="1">
          <mxGeometry x="490" y="500" width="300" height="190" as="geometry" />
        </mxCell>
        <mxCell id="2QEMIKGN3rchz1caqjJI-4" value="&lt;h3&gt;集成测试 (Integration)&lt;/h3&gt;&lt;br&gt;• Spring Boot Test&lt;br&gt;• @SpringBootTest&lt;br&gt;• @WebMvcTest&lt;br&gt;• @DataMongoTest&lt;br&gt;• API集成测试&lt;br&gt;&lt;br&gt;数量: 中等" style="rounded=1;whiteSpace=wrap;html=1;fillColor=#ff9800;strokeColor=#f57c00;fontColor=#ffffff;fontSize=12;fontStyle=1;gradientColor=#f57c00;gradientDirection=north;" vertex="1" parent="1">
          <mxGeometry x="489" y="735" width="300" height="190" as="geometry" />
        </mxCell>
        <mxCell id="2QEMIKGN3rchz1caqjJI-5" value="&lt;h3&gt;单元测试 (Unit)&lt;/h3&gt;&lt;br&gt;• JUnit 5&lt;br&gt;• Mockito&lt;br&gt;• AssertJ&lt;br&gt;• Jest/Vitest&lt;br&gt;• Vue Test Utils&lt;br&gt;&lt;br&gt;数量: 大量" style="rounded=1;whiteSpace=wrap;html=1;fillColor=#4caf50;strokeColor=#388e3c;fontColor=#ffffff;fontSize=12;fontStyle=1;gradientColor=#388e3c;gradientDirection=north;" vertex="1" parent="1">
          <mxGeometry x="489" y="965" width="300" height="175" as="geometry" />
        </mxCell>
        <mxCell id="2QEMIKGN3rchz1caqjJI-6" value="测试类型分类" style="text;html=1;strokeColor=none;fillColor=none;align=center;verticalAlign=middle;whiteSpace=wrap;rounded=0;fontSize=20;fontStyle=1;fontColor=#2196f3;" vertex="1" parent="1">
          <mxGeometry x="890" y="460" width="200" height="30" as="geometry" />
        </mxCell>
        <mxCell id="2QEMIKGN3rchz1caqjJI-7" value="&lt;h3&gt;黑盒测试 (Black Box)&lt;/h3&gt;• 功能测试&lt;br&gt;• 用户界面测试&lt;br&gt;• API接口测试&lt;br&gt;• 性能测试&lt;br&gt;• 安全测试&lt;br&gt;• 兼容性测试" style="rounded=1;whiteSpace=wrap;html=1;fillColor=#9c27b0;strokeColor=#7b1fa2;fontColor=#ffffff;fontSize=12;fontStyle=1;gradientColor=#7b1fa2;gradientDirection=north;" vertex="1" parent="1">
          <mxGeometry x="840" y="500" width="300" height="130" as="geometry" />
        </mxCell>
        <mxCell id="2QEMIKGN3rchz1caqjJI-8" value="白盒测试 (White Box)&#xa;&#xa;• 单元测试&#xa;• 集成测试&#xa;• 代码覆盖率测试&#xa;• 静态代码分析&#xa;• 代码审查&#xa;• 调试测试" style="rounded=1;whiteSpace=wrap;html=1;fillColor=#00bcd4;strokeColor=#0097a7;fontColor=#ffffff;fontSize=12;fontStyle=1;gradientColor=#0097a7;gradientDirection=north;" vertex="1" parent="1">
          <mxGeometry x="1190" y="500" width="300" height="130" as="geometry" />
        </mxCell>
        <mxCell id="2QEMIKGN3rchz1caqjJI-9" value="灰盒测试 (Gray Box)&#xa;&#xa;• 组件测试&#xa;• 模块测试&#xa;• 子系统测试&#xa;• 数据库测试&#xa;• 中间件测试&#xa;• 配置测试" style="rounded=1;whiteSpace=wrap;html=1;fillColor=#795548;strokeColor=#5d4037;fontColor=#ffffff;fontSize=12;fontStyle=1;gradientColor=#5d4037;gradientDirection=north;" vertex="1" parent="1">
          <mxGeometry x="1540" y="500" width="300" height="130" as="geometry" />
        </mxCell>
        <mxCell id="2QEMIKGN3rchz1caqjJI-10" value="前端测试 (Frontend Testing)" style="text;html=1;strokeColor=none;fillColor=none;align=center;verticalAlign=middle;whiteSpace=wrap;rounded=0;fontSize=18;fontStyle=1;fontColor=#4361ee;" vertex="1" parent="1">
          <mxGeometry x="840" y="660" width="300" height="30" as="geometry" />
        </mxCell>
        <mxCell id="2QEMIKGN3rchz1caqjJI-11" value="单元测试&#xa;&#xa;• Jest/Vitest&#xa;• Vue Test Utils&#xa;• 组件测试&#xa;• 工具函数测试&#xa;• API Mock测试" style="rounded=1;whiteSpace=wrap;html=1;fillColor=#4361ee;strokeColor=#3a0ca3;fontColor=#ffffff;fontSize=11;fontStyle=1;gradientColor=#3a0ca3;gradientDirection=north;" vertex="1" parent="1">
          <mxGeometry x="840" y="700" width="200" height="100" as="geometry" />
        </mxCell>
        <mxCell id="2QEMIKGN3rchz1caqjJI-12" value="集成测试&#xa;&#xa;• Cypress&#xa;• Playwright&#xa;• 页面交互测试&#xa;• 路由测试&#xa;• 状态管理测试" style="rounded=1;whiteSpace=wrap;html=1;fillColor=#4361ee;strokeColor=#3a0ca3;fontColor=#ffffff;fontSize=11;fontStyle=1;gradientColor=#3a0ca3;gradientDirection=north;" vertex="1" parent="1">
          <mxGeometry x="1070" y="700" width="200" height="100" as="geometry" />
        </mxCell>
        <mxCell id="2QEMIKGN3rchz1caqjJI-13" value="E2E测试&#xa;&#xa;• 用户场景测试&#xa;• 跨浏览器测试&#xa;• 响应式测试&#xa;• 性能测试&#xa;• 可访问性测试" style="rounded=1;whiteSpace=wrap;html=1;fillColor=#4361ee;strokeColor=#3a0ca3;fontColor=#ffffff;fontSize=11;fontStyle=1;gradientColor=#3a0ca3;gradientDirection=north;" vertex="1" parent="1">
          <mxGeometry x="1300" y="700" width="200" height="100" as="geometry" />
        </mxCell>
        <mxCell id="2QEMIKGN3rchz1caqjJI-14" value="后端测试 (Backend Testing)" style="text;html=1;strokeColor=none;fillColor=none;align=center;verticalAlign=middle;whiteSpace=wrap;rounded=0;fontSize=18;fontStyle=1;fontColor=#f72585;" vertex="1" parent="1">
          <mxGeometry x="840" y="840" width="300" height="30" as="geometry" />
        </mxCell>
        <mxCell id="2QEMIKGN3rchz1caqjJI-15" value="单元测试&#xa;&#xa;• JUnit 5&#xa;• Mockito&#xa;• AssertJ&#xa;• 服务层测试&#xa;• 工具类测试" style="rounded=1;whiteSpace=wrap;html=1;fillColor=#f72585;strokeColor=#b5179e;fontColor=#ffffff;fontSize=11;fontStyle=1;gradientColor=#b5179e;gradientDirection=north;" vertex="1" parent="1">
          <mxGeometry x="840" y="880" width="200" height="100" as="geometry" />
        </mxCell>
        <mxCell id="2QEMIKGN3rchz1caqjJI-16" value="集成测试&#xa;&#xa;• @SpringBootTest&#xa;• @WebMvcTest&#xa;• @DataMongoTest&#xa;• 控制器测试&#xa;• 数据库集成测试" style="rounded=1;whiteSpace=wrap;html=1;fillColor=#f72585;strokeColor=#b5179e;fontColor=#ffffff;fontSize=11;fontStyle=1;gradientColor=#b5179e;gradientDirection=north;" vertex="1" parent="1">
          <mxGeometry x="1070" y="880" width="200" height="100" as="geometry" />
        </mxCell>
        <mxCell id="2QEMIKGN3rchz1caqjJI-17" value="API测试&#xa;&#xa;• REST Assured&#xa;• Postman&#xa;• 接口功能测试&#xa;• 参数验证测试&#xa;• 错误处理测试" style="rounded=1;whiteSpace=wrap;html=1;fillColor=#f72585;strokeColor=#b5179e;fontColor=#ffffff;fontSize=11;fontStyle=1;gradientColor=#b5179e;gradientDirection=north;" vertex="1" parent="1">
          <mxGeometry x="1300" y="880" width="200" height="100" as="geometry" />
        </mxCell>
        <mxCell id="2QEMIKGN3rchz1caqjJI-18" value="专项测试 (Specialized Testing)" style="text;html=1;strokeColor=none;fillColor=none;align=center;verticalAlign=middle;whiteSpace=wrap;rounded=0;fontSize=18;fontStyle=1;fontColor=#4cc9f0;" vertex="1" parent="1">
          <mxGeometry x="840" y="996" width="300" height="30" as="geometry" />
        </mxCell>
        <mxCell id="2QEMIKGN3rchz1caqjJI-19" value="性能测试&#xa;&#xa;• JMeter&#xa;• Gatling&#xa;• 负载测试&#xa;• 压力测试&#xa;• 并发测试" style="rounded=1;whiteSpace=wrap;html=1;fillColor=#4cc9f0;strokeColor=#00b4d8;fontColor=#ffffff;fontSize=11;fontStyle=1;gradientColor=#00b4d8;gradientDirection=north;" vertex="1" parent="1">
          <mxGeometry x="889" y="1036" width="200" height="100" as="geometry" />
        </mxCell>
        <mxCell id="2QEMIKGN3rchz1caqjJI-20" value="安全测试&#xa;&#xa;• OWASP ZAP&#xa;• JWT安全测试&#xa;• 输入验证测试&#xa;• 权限控制测试" style="rounded=1;whiteSpace=wrap;html=1;fillColor=#4cc9f0;strokeColor=#00b4d8;fontColor=#ffffff;fontSize=11;fontStyle=1;gradientColor=#00b4d8;gradientDirection=north;" vertex="1" parent="1">
          <mxGeometry x="1119" y="1036" width="200" height="100" as="geometry" />
        </mxCell>
        <mxCell id="2QEMIKGN3rchz1caqjJI-21" value="数据库测试&#xa;&#xa;• MongoDB测试&#xa;• 数据完整性测试&#xa;• 查询性能测试&#xa;• 事务测试" style="rounded=1;whiteSpace=wrap;html=1;fillColor=#4cc9f0;strokeColor=#00b4d8;fontColor=#ffffff;fontSize=11;fontStyle=1;gradientColor=#00b4d8;gradientDirection=north;" vertex="1" parent="1">
          <mxGeometry x="1349" y="1036" width="200" height="100" as="geometry" />
        </mxCell>
        <mxCell id="2QEMIKGN3rchz1caqjJI-22" value="AI服务测试&#xa;&#xa;• 百度千帆API测试&#xa;• 关键词生成测试&#xa;• 内容分析测试&#xa;• 错误处理测试" style="rounded=1;whiteSpace=wrap;html=1;fillColor=#4cc9f0;strokeColor=#00b4d8;fontColor=#ffffff;fontSize=11;fontStyle=1;gradientColor=#00b4d8;gradientDirection=north;" vertex="1" parent="1">
          <mxGeometry x="1579" y="1036" width="200" height="100" as="geometry" />
        </mxCell>
        <mxCell id="2QEMIKGN3rchz1caqjJI-26" value="测试流程 (Testing Process)" style="text;html=1;strokeColor=none;fillColor=none;align=center;verticalAlign=middle;whiteSpace=wrap;rounded=0;fontSize=18;fontStyle=1;fontColor=#43a047;" vertex="1" parent="1">
          <mxGeometry x="1550" y="650" width="300" height="30" as="geometry" />
        </mxCell>
        <mxCell id="2QEMIKGN3rchz1caqjJI-27" value="1. 测试计划&#xa;• 需求分析&#xa;• 测试策略制定&#xa;• 测试用例设计" style="rounded=1;whiteSpace=wrap;html=1;fillColor=#43a047;strokeColor=#2e7d32;fontColor=#ffffff;fontSize=11;fontStyle=1;gradientColor=#2e7d32;gradientDirection=north;" vertex="1" parent="1">
          <mxGeometry x="1610" y="690" width="150" height="80" as="geometry" />
        </mxCell>
        <mxCell id="2QEMIKGN3rchz1caqjJI-28" value="2. 测试执行&#xa;• 单元测试&#xa;• 集成测试&#xa;• 系统测试" style="rounded=1;whiteSpace=wrap;html=1;fillColor=#43a047;strokeColor=#2e7d32;fontColor=#ffffff;fontSize=11;fontStyle=1;gradientColor=#2e7d32;gradientDirection=north;" vertex="1" parent="1">
          <mxGeometry x="1609" y="790" width="150" height="80" as="geometry" />
        </mxCell>
        <mxCell id="2QEMIKGN3rchz1caqjJI-29" value="3. 测试报告&#xa;• 测试结果分析&#xa;• 缺陷跟踪&#xa;• 质量评估" style="rounded=1;whiteSpace=wrap;html=1;fillColor=#43a047;strokeColor=#2e7d32;fontColor=#ffffff;fontSize=11;fontStyle=1;gradientColor=#2e7d32;gradientDirection=north;" vertex="1" parent="1">
          <mxGeometry x="1610" y="885" width="150" height="80" as="geometry" />
        </mxCell>
        <mxCell id="2QEMIKGN3rchz1caqjJI-30" value="" style="endArrow=classic;html=1;rounded=0;strokeWidth=2;strokeColor=#e91e63;" edge="1" parent="1" source="2QEMIKGN3rchz1caqjJI-3" target="2QEMIKGN3rchz1caqjJI-4">
          <mxGeometry width="50" height="50" relative="1" as="geometry">
            <mxPoint x="589" y="620" as="sourcePoint" />
            <mxPoint x="639" y="640" as="targetPoint" />
          </mxGeometry>
        </mxCell>
        <mxCell id="2QEMIKGN3rchz1caqjJI-31" value="" style="endArrow=classic;html=1;rounded=0;strokeWidth=2;strokeColor=#e91e63;" edge="1" parent="1" source="2QEMIKGN3rchz1caqjJI-4" target="2QEMIKGN3rchz1caqjJI-5">
          <mxGeometry width="50" height="50" relative="1" as="geometry">
            <mxPoint x="639" y="760" as="sourcePoint" />
            <mxPoint x="689" y="780" as="targetPoint" />
          </mxGeometry>
        </mxCell>
        <mxCell id="2QEMIKGN3rchz1caqjJI-32" value="" style="endArrow=classic;html=1;rounded=0;strokeWidth=2;strokeColor=#2196f3;dashed=1;" edge="1" parent="1" source="2QEMIKGN3rchz1caqjJI-7" target="2QEMIKGN3rchz1caqjJI-8">
          <mxGeometry width="50" height="50" relative="1" as="geometry">
            <mxPoint x="1140" y="560" as="sourcePoint" />
            <mxPoint x="1190" y="560" as="targetPoint" />
          </mxGeometry>
        </mxCell>
        <mxCell id="2QEMIKGN3rchz1caqjJI-33" value="" style="endArrow=classic;html=1;rounded=0;strokeWidth=2;strokeColor=#2196f3;dashed=1;" edge="1" parent="1" source="2QEMIKGN3rchz1caqjJI-8" target="2QEMIKGN3rchz1caqjJI-9">
          <mxGeometry width="50" height="50" relative="1" as="geometry">
            <mxPoint x="1490" y="560" as="sourcePoint" />
            <mxPoint x="1540" y="560" as="targetPoint" />
          </mxGeometry>
        </mxCell>
        <mxCell id="2QEMIKGN3rchz1caqjJI-34" value="" style="endArrow=classic;html=1;rounded=0;strokeWidth=2;strokeColor=#4361ee;" edge="1" parent="1" source="2QEMIKGN3rchz1caqjJI-11" target="2QEMIKGN3rchz1caqjJI-12">
          <mxGeometry width="50" height="50" relative="1" as="geometry">
            <mxPoint x="1040" y="750" as="sourcePoint" />
            <mxPoint x="1070" y="750" as="targetPoint" />
          </mxGeometry>
        </mxCell>
        <mxCell id="2QEMIKGN3rchz1caqjJI-35" value="" style="endArrow=classic;html=1;rounded=0;strokeWidth=2;strokeColor=#4361ee;" edge="1" parent="1" source="2QEMIKGN3rchz1caqjJI-12" target="2QEMIKGN3rchz1caqjJI-13">
          <mxGeometry width="50" height="50" relative="1" as="geometry">
            <mxPoint x="1270" y="750" as="sourcePoint" />
            <mxPoint x="1300" y="750" as="targetPoint" />
          </mxGeometry>
        </mxCell>
        <mxCell id="2QEMIKGN3rchz1caqjJI-36" value="" style="endArrow=classic;html=1;rounded=0;strokeWidth=2;strokeColor=#f72585;" edge="1" parent="1" source="2QEMIKGN3rchz1caqjJI-15" target="2QEMIKGN3rchz1caqjJI-16">
          <mxGeometry width="50" height="50" relative="1" as="geometry">
            <mxPoint x="1040" y="930" as="sourcePoint" />
            <mxPoint x="1070" y="930" as="targetPoint" />
          </mxGeometry>
        </mxCell>
        <mxCell id="2QEMIKGN3rchz1caqjJI-37" value="" style="endArrow=classic;html=1;rounded=0;strokeWidth=2;strokeColor=#f72585;" edge="1" parent="1" source="2QEMIKGN3rchz1caqjJI-16" target="2QEMIKGN3rchz1caqjJI-17">
          <mxGeometry width="50" height="50" relative="1" as="geometry">
            <mxPoint x="1270" y="930" as="sourcePoint" />
            <mxPoint x="1300" y="930" as="targetPoint" />
          </mxGeometry>
        </mxCell>
        <mxCell id="2QEMIKGN3rchz1caqjJI-38" value="" style="endArrow=classic;html=1;rounded=0;strokeWidth=2;strokeColor=#43a047;" edge="1" parent="1" source="2QEMIKGN3rchz1caqjJI-27" target="2QEMIKGN3rchz1caqjJI-28">
          <mxGeometry width="50" height="50" relative="1" as="geometry">
            <mxPoint x="1760" y="730" as="sourcePoint" />
            <mxPoint x="1780" y="730" as="targetPoint" />
          </mxGeometry>
        </mxCell>
        <mxCell id="2QEMIKGN3rchz1caqjJI-39" value="" style="endArrow=classic;html=1;rounded=0;strokeWidth=2;strokeColor=#43a047;" edge="1" parent="1" source="2QEMIKGN3rchz1caqjJI-28" target="2QEMIKGN3rchz1caqjJI-29">
          <mxGeometry width="50" height="50" relative="1" as="geometry">
            <mxPoint x="1930" y="730" as="sourcePoint" />
            <mxPoint x="1950" y="730" as="targetPoint" />
          </mxGeometry>
        </mxCell>
      </root>
    </mxGraphModel>
  </diagram>
</mxfile>
